<svg xmlns="http://www.w3.org/2000/svg" width="168" height="54.285" viewBox="0 0 168 54.285"><g transform="translate(-298 -9379.08)"><text transform="translate(350 9421.365)" fill="#84848a" font-size="9" font-family="SegoeUI, Segoe UI" letter-spacing="0.01em"><tspan x="0" y="10">CONSULTING SERVICE</tspan></text><text transform="translate(350 9379.08)" fill="#fff" font-size="36" font-family="SegoeUI-Bold, Segoe UI" font-weight="700" letter-spacing="-0.02em"><tspan x="0" y="39">Crito</tspan></text><path d="M0,1.358A14.261,14.261,0,0,1,8.833.318,7.778,7.778,0,0,1,13.69,3.985C12.928,4,12.165,4,11.4,4.01A6.726,6.726,0,0,0,7.733,1.415,15.606,15.606,0,0,0,.744,1.263,4.735,4.735,0,0,1,0,1.358Z" transform="translate(326.988 9383)" fill="#9437f0"/><path d="M0,.033C.511.01,1.022-.011,1.535.006a9.222,9.222,0,0,1,.07,1.619C1.119,1.589.631,1.608.146,1.567.087,1.056.043.545,0,.033Z" transform="translate(318.533 9384.562)" fill="#9435f3"/><path d="M0,0C.571.021,1.143.054,1.712.111A1.693,1.693,0,0,0,1.774,1.8c-.453-.044-.907-.079-1.36-.123L.07,1.619A9.223,9.223,0,0,0,0,0Z" transform="translate(320.067 9384.568)" fill="#8b39f7"/><path d="M0,.146Q.8.045,1.6,0c.043.512.087,1.024.146,1.534.485.042.973.022,1.459.059l.344.059c-.364,0-.728,0-1.092,0a17.088,17.088,0,0,0-1.84.1l-.4.052C.151,1.253.076.7,0,.146Z" transform="translate(316.928 9384.596)" fill="#9f31ef"/><path d="M0,.329C.607.193,1.221.084,1.837,0c.076.553.151,1.107.218,1.661-.48.066-.958.14-1.43.242A3.37,3.37,0,0,1,0,.329Z" transform="translate(315.092 9384.742)" fill="#a92ce9"/><path d="M.257,1.69A1.693,1.693,0,0,1,.195,0C.722.062,1.249.136,1.771.234a10.6,10.6,0,0,0-.109,1.676c-.468-.077-.935-.16-1.406-.22Z" transform="translate(321.585 9384.68)" fill="#823efa"/><path d="M.111,0a19.913,19.913,0,0,1,2.9.777A11.31,11.31,0,0,0,2.6,2.406c-.2-.067-.4-.132-.593-.2a17.487,17.487,0,0,0-2-.535A10.6,10.6,0,0,1,.111,0Z" transform="translate(323.246 9384.913)" fill="#7643fe"/><path d="M.174.38A14.089,14.089,0,0,1,1.554,0a3.37,3.37,0,0,0,.625,1.574c-.162.034-.323.073-.483.112-.266.067-.531.139-.794.217A3.676,3.676,0,0,1,0,.6Z" transform="translate(313.538 9385.071)" fill="#b227e4"/><path d="M0,.457A8.722,8.722,0,0,1,1.371,0a6.759,6.759,0,0,0,.742,1.507c-.505.16-1.012.32-1.508.5Q.32,1.227,0,.457Z" transform="translate(312.326 9385.466)" fill="#bc22df"/><path d="M.417,0a20.634,20.634,0,0,1,3.27,1.486c-.275.488-.531.986-.78,1.487A18.53,18.53,0,0,0,.642,1.861C.428,1.78.215,1.7,0,1.629A11.31,11.31,0,0,1,.417,0Z" transform="translate(325.841 9385.689)" fill="#664aff"/><path d="M0,.584C.449.378.9.18,1.361,0q.319.77.606,1.555c-.292.113-.579.236-.866.361-.132.059-.264.118-.394.18A4.454,4.454,0,0,1,0,.591Z" transform="translate(310.965 9385.923)" fill="#c41ed9"/><path d="M0,.1A17.091,17.091,0,0,1,1.84,0a28.385,28.385,0,0,1,.153,2.984,37.238,37.238,0,0,1,.07,3.752l-.359,0a10.54,10.54,0,0,0-1.055.079l-.174.022c.318-.384.092-.881.041-1.316C.187,3.733.182,1.907,0,.1Z" transform="translate(317.551 9386.25)" fill="#e533f3"/><path d="M0,0C.363,0,.727,0,1.092,0,1.545.044,2,.08,2.451.123a1.012,1.012,0,0,1,.2.64c-.026.768-.134,1.533-.167,2.3-.11,1.081-.033,2.169-.053,3.254a1.662,1.662,0,0,1-.143.6c-.258-.048-.519-.093-.781-.116A12,12,0,0,0,.223,6.74,37.235,37.235,0,0,0,.153,2.988,28.385,28.385,0,0,0,0,0Z" transform="translate(319.391 9386.245)" fill="#d539f8"/><path d="M.483.295c.472-.1.951-.176,1.43-.242L2.317,0c.182,1.807.187,3.633.516,5.423.051.435.278.932-.041,1.316-.277.035-.552.079-.826.133-.2.041-.389.088-.581.137A11.78,11.78,0,0,0,.937,5.383,6.335,6.335,0,0,1,.7,3.865c-.052-.586-.32-1.124-.4-1.706S.136.985,0,.407C.16.367.32.329.483.295Z" transform="translate(315.234 9386.35)" fill="#f12cee"/><path d="M.162,0C.633.06,1.1.143,1.568.22c-.026.675-.111,1.346-.109,2.021,0,.824-.173,1.638-.115,2.463A13.517,13.517,0,0,1,1.191,7.08C.86,6.98.523,6.9.186,6.832L0,6.8a1.662,1.662,0,0,0,.143-.6C.163,5.111.087,4.024.2,2.943.23,2.173.338,1.409.363.64A1.012,1.012,0,0,0,.162,0Z" transform="translate(321.68 9386.368)" fill="#c73ffb"/><path d="M0,1.4A19.206,19.206,0,0,1,2.487,0a4.454,4.454,0,0,0,.7,1.5A20.368,20.368,0,0,0,.982,2.734l-.175.117C.548,2.362.276,1.881,0,1.4Z" transform="translate(308.481 9386.515)" fill="#d217d0"/><path d="M.377,0a17.487,17.487,0,0,1,2,.535,8.739,8.739,0,0,1-.033,1.171c-.053.4-.218.77-.264,1.169-.115,1.547-.138,3.1-.335,4.642A10.94,10.94,0,0,0,.523,7.03Q.262,6.941,0,6.861A13.516,13.516,0,0,0,.153,4.485C.1,3.66.269,2.845.268,2.021.266,1.346.351.675.377,0Z" transform="translate(322.871 9386.588)" fill="#b943fd"/><path d="M2.374.217C2.637.139,2.9.067,3.168,0c.136.578.218,1.165.307,1.753s.346,1.12.4,1.706A6.336,6.336,0,0,0,4.1,4.977,11.782,11.782,0,0,1,4.553,6.6c-.205.054-.408.117-.609.183q-.473.158-.934.351a5.324,5.324,0,0,1-.37-.838,17.04,17.04,0,0,0-.8-1.536C1.533,4.1,1.056,3.519.789,2.833c-.233-.6-.5-1.179-.789-1.75C.287.957.575.835.866.721c.5-.185,1-.345,1.508-.5Z" transform="translate(312.066 9386.757)" fill="#ff23e7"/><path d="M0,.025C.763.015,1.525.013,2.288,0A10.142,10.142,0,0,1,3.374,2.919c-.769,0-1.537,0-2.306-.005A7.175,7.175,0,0,0,0,.025Z" transform="translate(338.389 9386.985)" fill="#8a40f1"/><path d="M.632,0c.2.063.4.128.593.2.215.075.428.152.642.233a20.372,20.372,0,0,0-.245,2.347c-.189.992-.184,2.01-.414,3C1.1,6.342,1.039,6.921.947,7.5.706,7.352.458,7.217.209,7.087L0,6.981c.2-1.54.22-3.1.335-4.642.046-.4.21-.772.264-1.169A8.742,8.742,0,0,0,.632,0Z" transform="translate(324.616 9387.123)" fill="#ac48ff"/><path d="M0,1.487C.249.986.505.488.78,0A20.819,20.819,0,0,1,2.991,1.46a11.039,11.039,0,0,0-.824,1.412l-.026.067A12.912,12.912,0,0,0,.454,1.746C.3,1.658.152,1.572,0,1.487Z" transform="translate(328.748 9387.175)" fill="#5750ff"/><path d="M.92,0A18.53,18.53,0,0,1,3.184,1.111c.152.085.3.171.454.259a15.611,15.611,0,0,0-.151,1.7c-.031.908-.311,1.785-.361,2.692-.022.634-.392,1.185-.454,1.81a13.841,13.841,0,0,1-.207,1.452Q2.26,8.807,2.049,8.6A10.69,10.69,0,0,0,.587,7.45C.393,7.32.2,7.189,0,7.068c.092-.574.151-1.154.261-1.725.231-.986.225-2,.414-3A20.372,20.372,0,0,1,.92,0Z" transform="translate(325.563 9387.553)" fill="#994dff"/><path d="M2.208.18C2.338.118,2.47.059,2.6,0c.289.571.556,1.154.789,1.75.267.686.743,1.263,1.052,1.93a17.037,17.037,0,0,1,.8,1.536,5.324,5.324,0,0,0,.37.838c-.1.044-.205.089-.307.136-.363.168-.718.356-1.064.557q-.2.118-.4.245c-.305-.519-.715-.965-1.022-1.482-.271-.456-.739-.764-.962-1.252A5.557,5.557,0,0,0,.825,2.394,3.339,3.339,0,0,1,0,1.41,20.366,20.366,0,0,1,2.208.18Z" transform="translate(309.463 9387.838)" fill="#ff19e0"/><path d="M0,1.543A19.862,19.862,0,0,1,2.022,0c.276.48.548.962.806,1.452A20.215,20.215,0,0,0,1,2.865,10.72,10.72,0,0,1,0,1.543Z" transform="translate(306.46 9387.913)" fill="#e20ec4"/><path d="M0,1.412A11.039,11.039,0,0,1,.824,0a19.812,19.812,0,0,1,2.9,2.68A4.3,4.3,0,0,0,2.666,4.008C2.478,3.8,2.287,3.6,2.1,3.4A26.7,26.7,0,0,0,0,1.412Z" transform="translate(330.914 9388.635)" fill="#4a54ff"/><path d="M1.173,0A12.913,12.913,0,0,1,2.86,1.193c-.142.715-.109,1.453-.257,2.167a14.616,14.616,0,0,0-.222,1.459c-.063.66-.413,1.251-.466,1.913a22.576,22.576,0,0,1-.489,2.731c-.094-.15-.191-.3-.289-.444A11.9,11.9,0,0,0,0,7.653,13.841,13.841,0,0,0,.207,6.2c.062-.625.432-1.176.454-1.81.05-.907.33-1.783.361-2.692A15.61,15.61,0,0,1,1.173,0Z" transform="translate(328.029 9388.923)" fill="#8452ff"/><path d="M2.889.117,3.064,0a3.339,3.339,0,0,0,.825.984A5.557,5.557,0,0,1,4.922,2.848c.223.488.691.8.962,1.252.308.518.717.964,1.022,1.482-.147.095-.292.2-.435.3-.308.221-.606.457-.894.7a9.879,9.879,0,0,0-.8.743c-.388-.562-1-.93-1.324-1.54-.193-.375-.643-.49-.885-.824-.34-.454-.89-.657-1.272-1.063A13.739,13.739,0,0,1,0,2.56c.352-.344.7-.693,1.06-1.03A20.215,20.215,0,0,1,2.889.117Z" transform="translate(306.399 9389.248)" fill="#ff0ed6"/><path d="M0,1.976A17.376,17.376,0,0,1,1.989,0a10.72,10.72,0,0,0,1,1.321c-.359.337-.707.686-1.06,1.03-.276.274-.544.555-.795.851A5.861,5.861,0,0,0,0,1.976Z" transform="translate(304.471 9389.459)" fill="#f306b8"/><path d="M0,0C.769.009,1.537,0,2.306.005A14.55,14.55,0,0,1,2.54,2.981c-.842.019-1.682,0-2.523,0A11.666,11.666,0,0,0,0,0Z" transform="translate(339.457 9389.898)" fill="#8345f3"/><path d="M1.434.067,1.46,0a26.7,26.7,0,0,1,2.1,1.986C3.5,2.6,3.135,3.147,3.127,3.775,3.1,4.6,2.836,5.4,2.806,6.23c-.021.6-.4,1.12-.4,1.722-.022.55-.032,1.1-.084,1.647l-.357.02c-.222,0-.443.006-.664.005L.741,9.616C.477,9.2.252,8.76,0,8.337A22.576,22.576,0,0,0,.489,5.605c.052-.662.4-1.253.466-1.913a14.616,14.616,0,0,1,.222-1.459c.148-.714.115-1.452.257-2.167Z" transform="translate(329.454 9390.049)" fill="#7155ff"/><path d="M0,1.328A4.3,4.3,0,0,1,1.056,0a20.481,20.481,0,0,1,2.6,3.677,7.246,7.246,0,0,0-1.241,1.29,13.809,13.809,0,0,0-1.2-2.049A15.8,15.8,0,0,0,0,1.328Z" transform="translate(333.581 9391.316)" fill="#3858ff"/><path d="M1.446,0A5.861,5.861,0,0,1,2.58,1.226c-.34.413-.661.84-.983,1.266A2.054,2.054,0,0,0,0,1.849,19.506,19.506,0,0,1,1.446,0Z" transform="translate(303.025 9391.434)" fill="#ff03ac"/><path d="M2.937.851c.251-.3.519-.576.795-.851a13.739,13.739,0,0,0,1.3,1.339c.382.406.932.609,1.272,1.063.242.334.692.449.885.824.322.611.937.978,1.324,1.54l-.073.078A11.507,11.507,0,0,0,7.1,6.553l-.108.186a17.081,17.081,0,0,0-1.954-.5,14.892,14.892,0,0,0-2.92-.586C1.408,5.664.708,5.528,0,5.576c.058-.131.119-.26.179-.389C.434,4.659.69,4.132.985,3.625a17.574,17.574,0,0,1,.97-1.508c.322-.426.643-.853.983-1.266Z" transform="translate(302.666 9391.811)" fill="#ff03c8"/><path d="M1.239,0c.19.2.381.4.569.609A15.794,15.794,0,0,1,3.019,2.2c-.035.406-.042.813-.068,1.22-.026.558-.4,1.033-.412,1.6a10.332,10.332,0,0,1-.359,2.5c-.724.079-1.454.06-2.179.1.052-.548.062-1.1.084-1.647.009-.6.382-1.122.4-1.722.03-.828.293-1.627.322-2.455C.817,1.161,1.18.618,1.239,0Z" transform="translate(331.772 9392.033)" fill="#5b58ff"/><path d="M.543,0c.841.007,1.681.023,2.523,0A17.925,17.925,0,0,1,2.8,2.665c-.9.006-1.9.046-2.8.012.04-.16.1-.3.128-.438C.3,1.5.422.75.543,0Z" transform="translate(338.933 9392.876)" fill="#7c4bf4"/><path d="M0,.079A10.524,10.524,0,0,1,1.054,0a10.769,10.769,0,0,0,.22,1.662c-.322.006-.644.028-.964.061C.19,1.178.091.63,0,.079Z" transform="translate(318.2 9392.989)" fill="#9f32ea"/><path d="M0,0,.359,0A12,12,0,0,1,1.644.063c-.13.032-.261.065-.389.1.029.514.06,1.03.067,1.545a10.876,10.876,0,0,0-1.1-.046A10.761,10.761,0,0,1,0,0Z" transform="translate(319.255 9392.984)" fill="#9436ef"/><path d="M.009.156C.282.1.558.058.835.022L1.009,0c.091.551.19,1.1.311,1.644C.978,1.68.638,1.734.3,1.8A4.321,4.321,0,0,1,.009.156Z" transform="translate(317.191 9393.066)" fill="#aa2ce4"/><path d="M0,.1C.128.065.258.032.389,0,.65.023.911.068,1.17.116l.186.036q-.09.833-.169,1.665C.816,1.743.442,1.684.067,1.647.06,1.131.029.616,0,.1Z" transform="translate(320.51 9393.05)" fill="#893bf4"/><path d="M.609.137C.8.088.994.041,1.19,0a4.321,4.321,0,0,0,.294,1.648q-.5.107-.981.261A5.39,5.39,0,0,1,0,.319C.2.254.4.191.609.137Z" transform="translate(316.01 9393.223)" fill="#b527de"/><path d="M.169,0C.506.069.843.148,1.174.249q.263.08.523.17a13.5,13.5,0,0,1-.378,1.627A10.513,10.513,0,0,0,0,1.665Q.08.832.169,0Z" transform="translate(321.697 9393.199)" fill="#7c41f8"/><path d="M.935,0a2.054,2.054,0,0,1,1.6.644,17.571,17.571,0,0,0-.97,1.508,2.894,2.894,0,0,0-.7-.542A3.327,3.327,0,0,0,0,1.494C.289.983.6.486.935,0Z" transform="translate(302.09 9393.283)" fill="#ff01a2"/><path d="M.307.351C.613.222.925.106,1.24,0a5.39,5.39,0,0,0,.5,1.59,10.482,10.482,0,0,0-1.059.418C.477,1.492.252.983,0,.487.1.44.2.395.307.351Z" transform="translate(314.769 9393.541)" fill="#c121d7"/><path d="M.378,0A10.942,10.942,0,0,1,1.6.486l.209.106a9.446,9.446,0,0,0-.568,1.583A10.118,10.118,0,0,0,0,1.627,13.5,13.5,0,0,0,.378,0Z" transform="translate(323.016 9393.618)" fill="#7046fc"/><path d="M0,.557C.346.356.7.168,1.064,0c.252.5.477,1.005.685,1.522-.289.131-.575.273-.85.432A12.191,12.191,0,0,1,0,.557Z" transform="translate(313.706 9394.026)" fill="#cc1bcf"/><path d="M0,1.583A9.445,9.445,0,0,1,.568,0c.249.13.5.265.738.409.2.122.393.252.587.382C1.663,1.3,1.43,1.817,1.2,2.331A10.273,10.273,0,0,0,0,1.583Z" transform="translate(324.257 9394.212)" fill="#644bff"/><path d="M3.375,0a13.809,13.809,0,0,1,1.2,2.049c.374.578,0,1.21-.015,1.824a6.387,6.387,0,0,1-.177,1.473c-.767.1-1.541.084-2.311.131A13.081,13.081,0,0,1,0,5.433l.357-.02c.725-.038,1.455-.019,2.179-.1a10.332,10.332,0,0,0,.359-2.5c.017-.562.387-1.037.412-1.6C3.334.813,3.34.406,3.375,0Z" transform="translate(331.416 9394.234)" fill="#485bff"/><path d="M.435.245Q.632.119.835,0a12.191,12.191,0,0,0,.9,1.4c-.293.172-.578.354-.853.552C.6,1.473.307,1,0,.544c.143-.1.287-.2.435-.3Z" transform="translate(312.871 9394.585)" fill="#d717c7"/><path d="M0,1.7Q.393.83.858,0a3.327,3.327,0,0,1,.865.115,2.894,2.894,0,0,1,.7.542c-.295.507-.551,1.034-.805,1.563A4.173,4.173,0,0,0,0,1.7Z" transform="translate(301.233 9394.777)" fill="#ff0098"/><path d="M.691,0A10.69,10.69,0,0,1,2.152,1.151c-.294.5-.581,1-.873,1.493A9.543,9.543,0,0,0,0,1.54C.228,1.026.46.513.691,0Z" transform="translate(325.46 9395)" fill="#594fff"/><path d="M2.91,1.29A7.245,7.245,0,0,1,4.151,0a14.057,14.057,0,0,1,1.1,2.453c-.052.152-.11.3-.168.453A29.85,29.85,0,0,1,3.516,6.343c-1.173,0-2.345,0-3.516,0A3.464,3.464,0,0,0,.406,4.719c.77-.047,1.545-.033,2.311-.131a6.387,6.387,0,0,0,.177-1.473c.012-.614.389-1.246.015-1.824Z" transform="translate(333.085 9394.991)" fill="#2e5cff"/><path d="M0,.7C.288.457.586.221.894,0c.307.46.6.929.88,1.4q-.388.28-.748.594C.668,1.581.331,1.144,0,.7Z" transform="translate(311.977 9395.131)" fill="#e010bf"/><path d="M.762.019.863,0c.9.034,1.8.014,2.7.007C3.414.8,3.236,1.589,3.023,2.368c-1.007.018-2.016.019-3.023,0,.058-.15.115-.3.168-.453C.383,1.291.6.66.762.019Z" transform="translate(338.17 9395.533)" fill="#764ff5"/><path d="M.073.743A9.879,9.879,0,0,1,.868,0c.331.441.668.877,1.026,1.3-.285.256-.555.527-.818.806C.726,1.667.349,1.255,0,.821Z" transform="translate(311.109 9395.831)" fill="#ea0cb6"/><path d="M0,1.493C.292,1,.579.5.873,0q.211.207.417.423A11.9,11.9,0,0,1,2.426,1.789a5.332,5.332,0,0,0-.965,1.585A10.014,10.014,0,0,0,0,1.493Z" transform="translate(326.74 9396.149)" fill="#4d53ff"/><path d="M.722,0A4.173,4.173,0,0,1,2.336.522C2.275.65,2.214.779,2.157.91c-.2.437-.364.887-.521,1.339A3.971,3.971,0,0,0,0,1.86C.213,1.23.456.611.722,0Z" transform="translate(300.511 9396.475)" fill="#ff008e"/><path d="M0,1.709A11.506,11.506,0,0,1,1.345,0c.349.434.726.846,1.077,1.281A9.844,9.844,0,0,0,1.37,2.661,7.918,7.918,0,0,0,0,1.709Z" transform="translate(309.763 9396.653)" fill="#f806aa"/><path d="M1.4.01C2.106-.038,2.806.1,3.513.085a14.892,14.892,0,0,1,2.92.586,17.08,17.08,0,0,1,1.954.5A12.172,12.172,0,0,0,7.2,3.7c-.048.152-.093.3-.134.457a6.28,6.28,0,0,0-1.944-.047c-.511.031-1,.232-1.515.218a4.957,4.957,0,0,0-1.587.3C1.331,4.82.7,5.2,0,5.363A20.613,20.613,0,0,1,.347,3.272,16.559,16.559,0,0,1,.877,1.35C1.034.9,1.2.447,1.4.01Z" transform="translate(301.269 9397.373)" fill="#ff00b9"/><path d="M1.83,0C2.837.022,3.845.021,4.853,0a29.743,29.743,0,0,1-1.436,3.97H3.4c-1.133-.029-2.268.019-3.4-.049l.261-.487A29.849,29.849,0,0,0,1.83,0Z" transform="translate(336.341 9397.898)" fill="#6c55f6"/><path d="M0,1.585A5.332,5.332,0,0,1,.965,0c.1.146.2.294.289.444.252.424.477.863.741,1.28l.555.007a10.365,10.365,0,0,0-1,1.666q-.362,0-.721-.013A8.9,8.9,0,0,0,0,1.585Z" transform="translate(328.201 9397.94)" fill="#4056ff"/><path d="M.5,0A3.972,3.972,0,0,1,2.137.39a16.559,16.559,0,0,0-.53,1.922C1.274,1.777.535,1.908,0,1.787.139,1.184.309.588.5,0Z" transform="translate(300.008 9398.335)" fill="#ff0084"/><path d="M1.185.186,1.292,0a7.918,7.918,0,0,1,1.37.952,10.456,10.456,0,0,0-1.082,2.32A9.539,9.539,0,0,0,0,2.71,12.172,12.172,0,0,1,1.185.186Z" transform="translate(308.472 9398.363)" fill="#ff0395"/><path d="M1,.005c.221,0,.442,0,.664-.005A13.082,13.082,0,0,0,3.738.045a3.464,3.464,0,0,1-.406,1.628c-1.111,0-2.222,0-3.333,0A10.365,10.365,0,0,1,1,.005Z" transform="translate(329.753 9399.667)" fill="#375aff"/><path d="M.406,0C.941.122,1.68-.01,2.013.525a20.613,20.613,0,0,0-.347,2.091c0,.022-.009.067-.011.09C1.1,2.621.552,2.55,0,2.479A20.467,20.467,0,0,1,.406,0Z" transform="translate(299.603 9400.122)" fill="#ff0079"/><path d="M.343,0A9.538,9.538,0,0,1,1.924.562,10.09,10.09,0,0,0,1.6,1.887C1.069,1.729.534,1.575,0,1.413.06,1.092.127.773.209.457.25.3.295.152.343,0Z" transform="translate(308.129 9401.072)" fill="#ff0283"/><path d="M5.226.053A6.28,6.28,0,0,1,7.17.1c-.082.316-.15.635-.209.956-.073.415-.14.832-.189,1.252-.054.395-.11.789-.15,1.186-.6.346-1.273.525-1.86.891-.489.3-1.017.53-1.5.849-.534.35-1.2.517-1.6,1.052A3.977,3.977,0,0,1,.47,7.353C.348,6.787.235,6.22.163,5.647A19.605,19.605,0,0,1,0,3.41,19.451,19.451,0,0,1,.091,1.4c0-.022.007-.067.011-.09.7-.163,1.331-.543,2.023-.741a4.957,4.957,0,0,1,1.587-.3c.517.014,1-.187,1.515-.218Z" transform="translate(301.167 9401.43)" fill="#ff00a9"/><path d="M0,3.191C.692,2.156,1.345,1.093,1.941,0c1.132.068,2.267.02,3.4.049a33.35,33.35,0,0,1-1.61,3.224C2.489,3.2,1.242,3.3,0,3.191Z" transform="translate(334.4 9401.821)" fill="#615df7"/><path d="M.2,0C.731.162,1.266.316,1.8.474A10.86,10.86,0,0,0,1.659,2.03,14.122,14.122,0,0,0,0,1.929c0-.226,0-.451.007-.677C.057.832.124.415.2,0Z" transform="translate(307.932 9402.486)" fill="#ff0275"/><path d="M0,2.158A16.918,16.918,0,0,1,.088,0c.552.07,1.1.142,1.656.226a19.451,19.451,0,0,0-.091,2.012A9.36,9.36,0,0,1,0,2.158Z" transform="translate(299.514 9402.601)" fill="#ff006d"/><path d="M6.152,1.186c.04-.4.1-.791.15-1.186-.009.225-.007.45-.007.677A12.716,12.716,0,0,0,6.471,3.1c.031.149.065.3.1.447A8.5,8.5,0,0,0,4.516,4.944,10.672,10.672,0,0,1,2.425,6.5,6.708,6.708,0,0,0,.883,7.863c-.032-.082-.1-.245-.126-.328A18.892,18.892,0,0,1,.123,5.575C.079,5.4.038,5.22,0,5.044A3.977,3.977,0,0,0,1.2,3.978c.4-.536,1.066-.7,1.6-1.052.479-.318,1.006-.548,1.5-.849.586-.366,1.263-.545,1.86-.891Z" transform="translate(301.637 9403.738)" fill="#ff059a"/><path d="M0,0A14.124,14.124,0,0,1,1.66.1a10.555,10.555,0,0,0,.12,1.7c-.531.186-1.258.1-1.6.622A12.715,12.715,0,0,1,0,0Z" transform="translate(307.93 9404.413)" fill="#ff0566"/><path d="M0,0A9.361,9.361,0,0,0,1.653.08a19.605,19.605,0,0,0,.163,2.237q-.844-.008-1.69.005A16.549,16.549,0,0,1,0,0Z" transform="translate(299.513 9404.758)" fill="#ff0062"/><path d="M1.25,2.951C2,1.994,2.723,1.014,3.4,0,4.638.111,5.884,0,7.127.082a49.729,49.729,0,0,1-2.9,4.466C2.82,4.453,1.409,4.531,0,4.5c.421-.511.847-1.019,1.25-1.545Z" transform="translate(331.005 9405.014)" fill="#5564f9"/><path d="M0,.622C.344.1,1.071.186,1.6,0a10.013,10.013,0,0,0,.313,1.367,6.187,6.187,0,0,0-1.474.846C.317,1.836.2,1.456.1,1.069.065.921.031.772,0,.622Z" transform="translate(308.108 9406.216)" fill="#ff0c58"/><path d="M0,.008Q.844,0,1.69,0c.072.573.185,1.14.307,1.706.038.176.079.354.123.53l-1.671.21A20.525,20.525,0,0,1,0,.008Z" transform="translate(299.641 9407.073)" fill="#ff0158"/><path d="M5.689,0c.1.386.216.766.34,1.144a10.736,10.736,0,0,0,.436,1.116c.064.136.131.271.2.406-.849.879-1.739,1.718-2.54,2.642A12.153,12.153,0,0,0,2.838,6.694,7.827,7.827,0,0,1,1.9,7.833c-.207-.306-.411-.615-.6-.931C1.032,6.453.775,6,.543,5.525c-.194-.4-.38-.8-.543-1.211A6.708,6.708,0,0,1,1.541,2.949,10.672,10.672,0,0,0,3.633,1.395,8.5,8.5,0,0,1,5.689,0Z" transform="translate(302.52 9407.285)" fill="#ff158f"/><path d="M0,.846A6.187,6.187,0,0,1,1.474,0a9.628,9.628,0,0,0,.454,1.189c-.493.265-1,.509-1.492.774A10.737,10.737,0,0,1,0,.846Z" transform="translate(308.549 9407.585)" fill="#ff164d"/><path d="M2.086.392C2.159.242,2.2,0,2.418.007,3.427-.009,4.436.015,5.444,0c-.4.526-.829,1.034-1.25,1.545C3.7,2.126,3.2,2.693,2.686,3.252c-.555.623-1.151,1.208-1.736,1.8A15.29,15.29,0,0,0,0,3.636,9.977,9.977,0,0,0,2.086.392Z" transform="translate(326.81 9407.963)" fill="#ffd200"/><path d="M5.937,0a4.085,4.085,0,0,1,1.136.07A19.385,19.385,0,0,1,5.426,5.256a19.7,19.7,0,0,1-3.5,5.183A8.127,8.127,0,0,0,0,7.52,52.265,52.265,0,0,0,5.937,0Z" transform="translate(332.364 9407.961)" fill="#ffda00"/><path d="M1.492,0a10.027,10.027,0,0,0,.534,1.025c-.45.33-.911.643-1.379.946C.49,1.711.341,1.447.2,1.179.131,1.045.064.909,0,.774.493.509,1,.265,1.492,0Z" transform="translate(308.985 9408.771)" fill="#ff2044"/><path d="M0,.21,1.671,0a18.889,18.889,0,0,0,.634,1.961c-.521.2-1.023.444-1.536.665A20.742,20.742,0,0,1,0,.21Z" transform="translate(300.089 9409.313)" fill="#ff054d"/><path d="M0,1.707C.514,1.147,1.018.581,1.508,0c1.409.034,2.82-.044,4.227.051Q5.081.932,4.4,1.789l-.019,0C2.921,1.664,1.458,1.8,0,1.707Z" transform="translate(329.497 9409.511)" fill="#4869fa"/><path d="M0,.946C.468.643.929.33,1.379,0a10.146,10.146,0,0,0,.655.961A8.773,8.773,0,0,0,.881,2.2L.838,2.143A11.465,11.465,0,0,1,0,.946Z" transform="translate(309.632 9409.798)" fill="#ff2a3b"/><path d="M4.761,0c.14.268.289.532.446.791a11.465,11.465,0,0,0,.838,1.2c-.688.9-1.512,1.69-2.263,2.539a7.29,7.29,0,0,1-.9,1.238,6.246,6.246,0,0,0-1.286,1.4L1.443,7C1.054,6.561.678,6.111.33,5.641.217,5.485.108,5.326,0,5.167A7.826,7.826,0,0,0,.934,4.028,12.153,12.153,0,0,1,2.221,2.642C3.022,1.718,3.911.879,4.761,0Z" transform="translate(304.425 9409.951)" fill="#ff2882"/><path d="M0,1.236A8.773,8.773,0,0,1,1.153,0,11.5,11.5,0,0,0,2,.973c-.38.4-.8.773-1.2,1.152A11.073,11.073,0,0,1,0,1.236Z" transform="translate(310.513 9410.759)" fill="#ff3633"/><path d="M0,.665C.513.444,1.015.2,1.536,0c.031.082.094.245.126.328.162.411.348.813.543,1.211a14.8,14.8,0,0,1-1.4.935C.512,1.884.24,1.281,0,.665Z" transform="translate(300.859 9411.272)" fill="#ff0e44"/><path d="M.323,1.8C.907,1.208,1.5.623,2.058,0,3.516.1,4.98-.043,6.437.08c-.571.743-1.2,1.445-1.821,2.143H4.6c-1.532-.107-3.071.052-4.6-.1L.323,1.8Z" transform="translate(327.438 9411.217)" fill="#406dfb"/><path d="M0,1.3A10.425,10.425,0,0,0,1.53,0,15.289,15.289,0,0,1,2.48,1.42l-.323.321C1.72,2.168,1.286,2.6.825,3,.55,2.435.307,1.85,0,1.3Z" transform="translate(325.281 9411.6)" fill="#ffc200"/><path d="M0,1.152C.4.773.821.4,1.2,0A10.425,10.425,0,0,0,3.254,1.575,4.108,4.108,0,0,0,2.381,3l-.139-.081a11.426,11.426,0,0,1-1.266-.9q-.458-.376-.89-.786Z" transform="translate(311.314 9411.729)" fill="#ff4924"/><path d="M4.454,0,4.5.053a11.073,11.073,0,0,0,.8.889l.087.084C5,1.561,4.5,2.005,4.117,2.544,3.743,3.059,3.4,3.594,3,4.088a13.709,13.709,0,0,1-1.772,2.3c-.052-.049-.157-.148-.21-.2C.667,5.863.324,5.528,0,5.174a6.246,6.246,0,0,1,1.286-1.4,7.291,7.291,0,0,0,.9-1.238C2.942,1.69,3.766.9,4.454,0Z" transform="translate(306.016 9411.94)" fill="#ff3679"/><path d="M0,.935A14.794,14.794,0,0,0,1.4,0c.233.47.489.927.759,1.377A8.478,8.478,0,0,1,.819,2.4C.531,1.917.252,1.432,0,.935Z" transform="translate(301.667 9412.811)" fill="#ff173e"/><path d="M4.159,0q.431.408.89.786a14.428,14.428,0,0,0-1.538,2.2,4.477,4.477,0,0,0-.437.989,15.131,15.131,0,0,1-.911,1.511c-.2.383-.36.784-.556,1.169q-.282-.2-.556-.414C.69,5.961.335,5.672,0,5.363a13.709,13.709,0,0,0,1.772-2.3c.4-.494.747-1.029,1.12-1.543C3.274.979,3.772.535,4.159,0Z" transform="translate(307.24 9412.969)" fill="#ff4271"/><path d="M0,1.343A10.277,10.277,0,0,0,2.785,0c.307.554.55,1.139.825,1.709-.591.545-1.2,1.071-1.816,1.587q-.093-.325-.183-.648c-.43.126-.86.255-1.292.371A13.727,13.727,0,0,0,0,1.343Z" transform="translate(322.496 9412.896)" fill="#ffb400"/><path d="M0,2.63A15.171,15.171,0,0,1,.763,0C.68.872.569,1.741.536,2.617.356,2.621.178,2.624,0,2.63Z" transform="translate(298.271 9413.005)" fill="#3073fd"/><path d="M2.489,1.264C2.95.86,3.384.427,3.822,0c1.528.149,3.068-.01,4.6.1-.154.176-.3.355-.466.524-.8.811-1.6,1.613-2.4,2.415-.173.172-.358.329-.542.487C3.342,3.4,1.665,3.574,0,3.414c.224-.188.451-.374.673-.564C1.289,2.334,1.9,1.809,2.489,1.264Z" transform="translate(323.617 9413.343)" fill="#3073fd"/><path d="M0,1.428A4.108,4.108,0,0,1,.873,0c.225.129.454.252.688.365C1.348.879,1.124,1.389.883,1.89c-.3-.144-.594-.3-.883-.462Z" transform="translate(313.693 9413.305)" fill="#ff5c16"/><path d="M.677,0c.309.148.625.281.946.4A12.584,12.584,0,0,0,.972,1.93c-.254-.095-.506-.2-.753-.3L0,1.525C.24,1.024.465.514.677,0Z" transform="translate(314.578 9413.672)" fill="#ff660c"/><path d="M3.443,0A11.425,11.425,0,0,0,4.708.9c-.538,1-1.133,1.975-1.617,3.006A10.085,10.085,0,0,1,2.632,5.07a20.409,20.409,0,0,1-.953,1.872C1.312,6.724.942,6.508.585,6.276.387,6.144.192,6.008,0,5.87.2,5.486.358,5.085.557,4.7A15.127,15.127,0,0,0,1.468,3.19,4.478,4.478,0,0,1,1.9,2.2,14.429,14.429,0,0,1,3.443,0Z" transform="translate(308.847 9413.752)" fill="#ff4f69"/><path d="M.652,0a9.657,9.657,0,0,0,1.17.343C1.7.886,1.584,1.43,1.48,1.977l-.174-.039A12.424,12.424,0,0,1,0,1.528,12.584,12.584,0,0,1,.652,0Z" transform="translate(315.55 9414.072)" fill="#ff7200"/><path d="M0,1.018A8.478,8.478,0,0,0,1.336,0c.191.316.4.624.6.931.108.159.217.318.33.474-.425.359-.842.728-1.244,1.112C.665,2.03.322,1.531,0,1.018Z" transform="translate(302.486 9414.187)" fill="#ff2037"/><path d="M0,.3A10.28,10.28,0,0,0,1.306,0a13.727,13.727,0,0,1,.318,1.677c-.295.077-.589.161-.885.229-.2.041-.408.073-.613.1A13.617,13.617,0,0,1,0,.3Z" transform="translate(321.189 9414.239)" fill="#ffa300"/><path d="M.341,0A11.014,11.014,0,0,0,1.605.2c-.1.552-.176,1.106-.23,1.664C.913,1.814.455,1.73,0,1.634.1,1.088.221.543.341,0Z" transform="translate(317.03 9414.415)" fill="#ff7f00"/><path d="M.151.12A10.141,10.141,0,0,0,1.4,0a13.617,13.617,0,0,0,.126,1.707C1.016,1.762.508,1.819,0,1.83.047,1.26.1.689.151.12Z" transform="translate(319.794 9414.535)" fill="#ff9700"/><path d="M3.029,0l.139.081c.289.162.583.318.883.462l.219.1a15.167,15.167,0,0,0-.8,1.989,17.868,17.868,0,0,1-.752,1.686A11.782,11.782,0,0,1,1.694,6.88a14.129,14.129,0,0,1-1.46-.7L0,6.041A20.406,20.406,0,0,0,.953,4.169a10.083,10.083,0,0,0,.459-1.163C1.9,1.975,2.491,1,3.029,0Z" transform="translate(310.527 9414.654)" fill="#ff5d60"/><path d="M.23,0A11.64,11.64,0,0,0,1.538.038c-.052.57-.1,1.141-.151,1.711-.146,0-.292,0-.437-.005C.632,1.729.315,1.7,0,1.664.053,1.106.135.552.23,0Z" transform="translate(318.406 9414.617)" fill="#ff8c00"/><path d="M2.6,0c.247.109.5.209.753.3A12.425,12.425,0,0,0,4.657.713a4.624,4.624,0,0,0-.35,1.316,8.3,8.3,0,0,1-.642,2.343,5.738,5.738,0,0,0-.2,1.317c-.058.37-.143.736-.207,1.106-.4.2-.806.4-1.222.573.132-.084.263-.174.394-.263A24.81,24.81,0,0,1,0,6.264l.021-.028a11.782,11.782,0,0,0,1.025-2.56A17.864,17.864,0,0,0,1.8,1.989,15.167,15.167,0,0,1,2.6,0Z" transform="translate(312.2 9415.297)" fill="#ff6e54"/><path d="M.985.371C1.418.255,1.847.126,2.278,0q.09.323.183.648c-.222.19-.449.376-.673.564C1.3,1.618.8,2,.3,2.386-.206,1.909.077,1.194.1.6.4.533.691.448.985.371Z" transform="translate(321.83 9415.543)" fill="#ffa91e"/><path d="M0,4.038A57.358,57.358,0,0,0,4.286,0,8.127,8.127,0,0,1,6.208,2.919,20.508,20.508,0,0,1,1.05,6.882,27.169,27.169,0,0,0,0,4.038Z" transform="translate(328.078 9415.48)" fill="#ffca00"/><path d="M.268.013C.446.007.624,0,.8,0A14.572,14.572,0,0,0,.892,2.353C.594,2.343.3,2.332,0,2.324A15.144,15.144,0,0,1,.268.013Z" transform="translate(298.003 9415.62)" fill="#2476fd"/><path d="M0,1.112C.4.728.819.359,1.244,0c.348.471.724.92,1.113,1.358A14.451,14.451,0,0,1,1.2,2.56C.773,2.1.383,1.609,0,1.112Z" transform="translate(303.512 9415.594)" fill="#ff2a30"/><path d="M1.4,0,1.57.039c.455.1.913.18,1.376.231.315.034.632.065.951.08-.129.678-.172,1.366-.272,2.047-.082.6-.413,1.176-.248,1.794C2.283,4.875,1.154,5.5,0,6.081c.064-.369.15-.735.207-1.106A5.738,5.738,0,0,1,.4,3.659a8.3,8.3,0,0,0,.642-2.343A4.624,4.624,0,0,1,1.4,0Z" transform="translate(315.46 9416.01)" fill="#ff8245"/><path d="M2.525.1c.205-.023.41-.056.613-.1-.022.593-.305,1.309.2,1.786-.57.434-1.16.844-1.746,1.258Q.826,3.564.046,4.056C-.12,3.438.211,2.861.294,2.262.394,1.581.437.892.566.215.711.219.856.221,1,.22,1.511.208,2.019.152,2.525.1Z" transform="translate(318.79 9416.146)" fill="#ff9632"/><path d="M1.746,1.175C2.248.789,2.754.407,3.239,0,4.9.16,6.581-.015,8.248.109a36.975,36.975,0,0,1-2.88,2.439,19.1,19.1,0,0,0-2.73-.085C1.759,2.46.879,2.476,0,2.433c.586-.414,1.176-.824,1.746-1.258Z" transform="translate(320.378 9416.755)" fill="#1878fe"/><path d="M0,1.2A14.453,14.453,0,0,0,1.155,0L1.3.164c.324.353.667.688,1.014,1.018A9.4,9.4,0,0,0,1.193,2.408C.775,2.027.383,1.619,0,1.2Z" transform="translate(304.714 9416.949)" fill="#ff3529"/><path d="M0,0C.3.009.6.019.895.03c.063.429.138.857.233,1.281L.049,1.348H.033C0,.9,0,.449,0,0Z" transform="translate(298 9417.944)" fill="#1179fe"/><path d="M1.124,0c.053.049.158.148.21.2.335.308.69.6,1.05.878-.4.4-.8.788-1.222,1.16C.766,1.909.368,1.583,0,1.225A9.4,9.4,0,0,1,1.124,0Z" transform="translate(305.906 9418.131)" fill="#ff3f23"/><path d="M0,.1C.36.084.733.077,1.092.065A7.07,7.07,0,0,0,3.567,4.051,8.016,8.016,0,0,0,8.953,5.43a19.021,19.021,0,0,0,5.4-1.207c.623-.233,1.241-.477,1.848-.748.416-.172.82-.37,1.222-.573,1.154-.577,2.283-1.206,3.376-1.89Q21.579.519,22.342,0c.879.043,1.759.027,2.638.029a19.1,19.1,0,0,1,2.73.085c-.722.6-1.492,1.136-2.256,1.679l-.014.01a36.645,36.645,0,0,1-10.45,5.153,17.888,17.888,0,0,1-7.745.682A8.889,8.889,0,0,1,2.122,5.072,8.327,8.327,0,0,1,0,.1Z" transform="translate(298.035 9419.188)" fill="#0082ff"/><path d="M0,1.16C.421.788.824.4,1.222,0q.274.211.556.414c.192.138.387.274.585.406A9.439,9.439,0,0,1,1.33,2.131C.874,1.825.434,1.5,0,1.16Z" transform="translate(307.068 9419.209)" fill="#ff4a1b"/><path d="M0,3.51C1.636,2.435,3.183,1.227,4.707,0a27.169,27.169,0,0,1,1.05,2.844A20.242,20.242,0,0,1,.177,4.85Q.1,4.177,0,3.51Z" transform="translate(323.37 9419.517)" fill="#ffb700"/><path d="M0,1.312A9.439,9.439,0,0,0,1.034,0c.357.233.726.448,1.094.666L2.362.8c-.275.482-.559.958-.843,1.436Q.74,1.805,0,1.312Z" transform="translate(308.398 9420.027)" fill="#ff5316"/><path d="M.843,0A14.13,14.13,0,0,0,2.3.7L2.282.732a5.316,5.316,0,0,0-.859,1.416C.94,1.929.464,1.694,0,1.436.284.958.568.482.843,0Z" transform="translate(309.918 9420.829)" fill="#ff5e0b"/><path d="M.012,0,0,.008Z" transform="translate(323.477 9420.984)" fill="#c0c1c7"/><path d="M0,1.416A5.316,5.316,0,0,1,.859,0,24.808,24.808,0,0,0,3.292.841C3.161.93,3.03,1.019,2.9,1.1c-.607.271-1.225.516-1.848.748C.7,1.716.346,1.57,0,1.416Z" transform="translate(311.34 9421.563)" fill="#ff6900"/><path d="M0,1.682C.888,1.077,1.857.6,2.749,0q.1.668.177,1.339A17.889,17.889,0,0,1,0,1.682Z" transform="translate(320.621 9423.027)" fill="orange"/></g></svg>