<svg xmlns="http://www.w3.org/2000/svg" xmlns:xlink="http://www.w3.org/1999/xlink" width="739" height="215" viewBox="0 0 739 215"><defs><clipPath id="a"><rect width="739" height="215" transform="translate(739 215.45) rotate(180)" fill="#d9d9d9"/></clipPath></defs><g transform="translate(0 -0.45)" clip-path="url(#a)"><g transform="translate(-190.737 -12)"><g transform="translate(480.858 26.6)"><path d="M.629,161.258c4.242,5.911,8.484,11.752,12.8,17.594,17.107,23.018,35.674,45.41,58.832,62.517,23.783,17.663,52.434,27.886,82.267,26.217a122.308,122.308,0,0,0,44.854-11.335c14.047-6.676,26.356-16.342,38.039-26.426,11.752-10.083,23.018-20.793,35.814-29.555a128.025,128.025,0,0,1,42-18.637c30.737-7.58,62.865-5.633,94.158-5.076,29.833.556,59.6-.278,88.6-8.345,52.364-14.534,97.5-46.523,141.237-77.538C683.659,59.1,728.93,26.348,781.642,10.215c2.712-.765,3.616-4.937.834-6.328C780.112,2.7,777.817,1.592,775.453.41c-3.964-2.017-7.51,3.964-3.477,5.981,2.364,1.182,4.659,2.295,7.024,3.477.278-2.086.556-4.242.835-6.328-6.328,1.878-12.517,4.033-18.637,6.4-50.556,19.611-94.089,52.712-138.108,83.658-43.254,30.389-88.873,60.57-141.516,71.418-30.32,6.259-61.335,4.729-92.072,4.172-30.111-.556-61.265-.417-89.986,9.875a140.476,140.476,0,0,0-38.665,21.766c-11.961,9.318-22.948,19.819-34.631,29.485-12.239,10.014-25.382,18.846-40.4,24.061a116.009,116.009,0,0,1-45.688,6.12C79.28,256.32,39.294,203.26,6.679,157.781c-2.643-3.616-8.623-.139-6.05,3.477Z" transform="translate(784.17 267.763) rotate(180)" fill="#fff"/></g><path d="M.139,234a235,235,0,0,0,20.723,21.7c60.709,55.7,147.774,75.313,226.355,50.626,40.751-12.8,74.756-36.648,104.729-66.62,31.224-31.224,59.6-65.716,98.539-87.83,28.591-16.217,20.848-23.068,90.772-31.586s126.956-5.854,188.922-2.489c93.88,5.146,187.2-.556,279-20.723A984,984,0,0,0,1267.52.825c.487-.278.07-1.043-.417-.765q-14.917,8.136-30.111,15.716a984.813,984.813,0,0,1-261.334,87.2,983.429,983.429,0,0,1-138.317,15.438c-48.331,1.878-96.384-.9-144.645-3.547-44.152-2.385-112.377,7.172-161.828,11.977-4.333.421-8.692.82-12.858,1.166-49.594,4.117-23.691,3.324-23.691,3.324s-41.469,16.88-60.523,29.987c-34.84,23.992-61.126,57.788-91.585,86.717-32.058,30.459-70.1,52.5-113.421,62.378-83.8,19.054-172.809-11.4-228.094-77.051-.348-.417-.974.209-.556.626Z" transform="translate(1267.737 316.821) rotate(180)" fill="#fff" stroke="#fff" stroke-width="1"/></g></g></svg>